<?xml version="1.0" standalone="no"?>
<!DOCTYPE svg PUBLIC "-//W3C//DTD SVG 20010904//EN"
 "http://www.w3.org/TR/2001/REC-SVG-20010904/DTD/svg10.dtd">
<svg version="1.0" xmlns="http://www.w3.org/2000/svg"
 width="500.000000pt" height="500.000000pt" viewBox="0 0 500.000000 500.000000"
 preserveAspectRatio="xMidYMid meet">
<metadata>
Created by potrace 1.14, written by Peter Selinger 2001-2017
</metadata>
<g transform="translate(0.000000,500.000000) scale(0.100000,-0.100000)"
fill="#000000" stroke="none">
<path d="M2250 4989 c-1145 -124 -2053 -993 -2225 -2129 -22 -148 -30 -429
-16 -580 56 -593 307 -1127 725 -1546 387 -386 864 -627 1406 -709 148 -22
429 -30 580 -16 593 56 1127 307 1546 725 386 387 627 864 709 1406 22 148 30
429 16 580 -47 489 -235 960 -538 1340 -89 113 -275 298 -393 392 -343 274
-760 455 -1200 523 -125 19 -487 28 -610 14z m-648 -1421 c57 -17 131 -87 158
-150 32 -72 38 -232 16 -382 -9 -60 -15 -110 -13 -112 1 -2 22 41 45 94 115
266 240 419 414 507 87 43 161 58 268 53 98 -5 167 -35 225 -100 80 -87 110
-190 109 -366 l-2 -122 42 93 c96 212 224 365 366 436 101 50 169 64 289 59
78 -3 105 -9 146 -30 154 -80 224 -258 197 -506 -6 -59 -52 -296 -101 -527
-102 -476 -118 -580 -101 -657 23 -108 72 -148 182 -148 96 0 151 31 282 162
102 103 111 109 145 106 50 -4 73 -49 68 -133 -5 -86 -29 -128 -137 -235 -155
-154 -276 -211 -450 -213 -153 -1 -255 38 -343 132 -89 95 -121 194 -120 361
2 140 20 246 119 698 103 468 108 573 33 637 -23 19 -42 25 -78 25 -72 0 -138
-38 -225 -131 -62 -66 -86 -102 -144 -218 -42 -85 -91 -203 -125 -307 -82
-249 -118 -422 -201 -961 -24 -156 -60 -213 -151 -233 -88 -20 -172 6 -201 63
-43 83 -31 214 71 777 144 794 152 907 67 981 -33 29 -39 31 -96 27 -86 -5
-148 -38 -231 -123 -209 -212 -360 -656 -475 -1400 -44 -289 -68 -328 -202
-329 -82 0 -127 18 -155 61 -15 23 -18 50 -17 183 1 138 7 188 52 455 99 584
150 994 136 1085 -10 59 -38 83 -89 78 -23 -3 -64 -16 -91 -29 -47 -23 -171
-138 -264 -246 -53 -61 -90 -69 -136 -30 -36 31 -44 107 -19 173 49 128 233
316 385 394 110 57 257 77 352 48z"/>
</g>
</svg>
